<svg width="48" height="48" viewBox="0 0 48 48" fill="none" xmlns="http://www.w3.org/2000/svg">
<path d="M38 0H10C4.47715 0 0 4.47715 0 10V38C0 43.5228 4.47715 48 10 48H38C43.5228 48 48 43.5228 48 38V10C48 4.47715 43.5228 0 38 0Z" fill="url(#paint0_linear_2169_427)"/>
<path d="M38 0H10C4.47715 0 0 4.47715 0 10V38C0 43.5228 4.47715 48 10 48H38C43.5228 48 48 43.5228 48 38V10C48 4.47715 43.5228 0 38 0Z" fill="url(#paint1_linear_2169_427)"/>
<path d="M10.166 22.5363V9.83337H22.8689V22.5363H10.166ZM12.2602 20.4425H20.7752V11.9275H12.2602V20.4425ZM10.166 38.1667V25.4638H22.8689V38.1667H10.166ZM12.2602 36.0725H20.7752V27.5575H12.2602V36.0725ZM25.7964 22.5363V9.83337H38.4994V22.5363H25.7964ZM27.8902 20.4425H36.4052V11.9275H27.8902V20.4425ZM35.3294 38.1667V34.9967H38.4994V38.1667H35.3294ZM25.7964 28.6509V25.4638H28.966V28.6509H25.7964ZM28.966 31.81V28.6509H32.1531V31.81H28.966ZM25.7964 34.9967V31.81H28.966V34.9967H25.7964ZM28.966 38.1667V34.9967H32.1531V38.1667H28.966ZM32.1531 34.9967V31.81H35.3294V34.9967H32.1531ZM32.1531 28.6509V25.4638H35.3294V28.6509H32.1531ZM35.3294 31.81V28.6509H38.4994V31.81H35.3294Z" fill="white"/>
<defs>
<linearGradient id="paint0_linear_2169_427" x1="0" y1="24" x2="48" y2="24" gradientUnits="userSpaceOnUse">
<stop stop-color="#FF5300"/>
<stop offset="0.16" stop-color="#FB5103"/>
<stop offset="0.31" stop-color="#F04C0F"/>
<stop offset="0.46" stop-color="#DE4322"/>
<stop offset="0.61" stop-color="#C5363C"/>
<stop offset="0.75" stop-color="#A4265F"/>
<stop offset="0.9" stop-color="#7C1389"/>
<stop offset="1" stop-color="#5B03AD"/>
</linearGradient>
<linearGradient id="paint1_linear_2169_427" x1="0" y1="24" x2="48" y2="24" gradientUnits="userSpaceOnUse">
<stop stop-color="#004C92"/>
<stop offset="1" stop-color="#FF0009"/>
</linearGradient>
</defs>
</svg>
