<svg width="51" height="51" viewBox="0 0 51 51" fill="none" xmlns="http://www.w3.org/2000/svg">
<path d="M41 0H10C4.47715 0 0 4.47715 0 10V41C0 46.5228 4.47715 51 10 51H41C46.5228 51 51 46.5228 51 41V10C51 4.47715 46.5228 0 41 0Z" fill="url(#paint0_linear_2169_415)"/>
<path d="M41 0H10C4.47715 0 0 4.47715 0 10V41C0 46.5228 4.47715 51 10 51H41C46.5228 51 51 46.5228 51 41V10C51 4.47715 46.5228 0 41 0Z" fill="url(#paint1_linear_2169_415)"/>
<path d="M12.4411 41.8333C11.7247 41.8333 11.1111 41.5779 10.6002 41.067C10.0894 40.5562 9.83398 39.9426 9.83398 39.2262V12.7737C9.83398 12.0573 10.0894 11.4437 10.6002 10.9329C11.1111 10.422 11.7247 10.1666 12.4411 10.1666H26.084L34.834 18.9166V27.452H32.7398V20.1666H24.834V12.2608H12.4411C12.3127 12.2608 12.1951 12.3141 12.0881 12.4208C11.9815 12.5277 11.9281 12.6454 11.9281 12.7737V39.2262C11.9281 39.3545 11.9815 39.4722 12.0881 39.5791C12.1951 39.6858 12.3127 39.7391 12.4411 39.7391H29.8661V41.8333H12.4411ZM37.5798 41.8333L31.7882 36.0254L33.2465 34.5258L36.5327 37.8141V29.9945H38.6265V37.8141L41.9132 34.5416L43.3711 36.0254L37.5798 41.8333Z" fill="white"/>
<defs>
<linearGradient id="paint0_linear_2169_415" x1="0" y1="25.5" x2="51" y2="25.5" gradientUnits="userSpaceOnUse">
<stop stop-color="#FF5300"/>
<stop offset="0.16" stop-color="#FB5103"/>
<stop offset="0.31" stop-color="#F04C0F"/>
<stop offset="0.46" stop-color="#DE4322"/>
<stop offset="0.61" stop-color="#C5363C"/>
<stop offset="0.75" stop-color="#A4265F"/>
<stop offset="0.9" stop-color="#7C1389"/>
<stop offset="1" stop-color="#5B03AD"/>
</linearGradient>
<linearGradient id="paint1_linear_2169_415" x1="0" y1="25.5" x2="51" y2="25.5" gradientUnits="userSpaceOnUse">
<stop stop-color="#004C92"/>
<stop offset="1" stop-color="#FF0009"/>
</linearGradient>
</defs>
</svg>
