<svg width="51" height="51" viewBox="0 0 51 51" fill="none" xmlns="http://www.w3.org/2000/svg">
<path d="M41 0H10C4.47715 0 0 4.47715 0 10V41C0 46.5228 4.47715 51 10 51H41C46.5228 51 51 46.5228 51 41V10C51 4.47715 46.5228 0 41 0Z" fill="url(#paint0_linear_2169_439)"/>
<path d="M41 0H10C4.47715 0 0 4.47715 0 10V41C0 46.5228 4.47715 51 10 51H41C46.5228 51 51 46.5228 51 41V10C51 4.47715 46.5228 0 41 0Z" fill="url(#paint1_linear_2169_439)"/>
<path d="M26 41.7842C22.3839 40.7942 19.3965 38.6499 17.0379 35.3512C14.6793 32.0529 13.5 28.3889 13.5 24.3592V14.8933L26 10.2137L38.5 14.8933V24.3592C38.5 24.5981 38.4957 24.8351 38.4871 25.0704C38.4785 25.306 38.46 25.5432 38.4317 25.7821C38.2556 25.7671 38.0908 25.7512 37.9375 25.7346C37.7842 25.7176 37.6208 25.7092 37.4475 25.7092C37.2567 25.7092 37.0671 25.7224 36.8788 25.7487C36.6904 25.7751 36.5008 25.8054 36.31 25.8396C36.3456 25.5876 36.3704 25.3411 36.3846 25.1C36.3988 24.8589 36.4058 24.6119 36.4058 24.3592V16.3429L26 12.44L15.5942 16.3429V24.3592C15.5942 27.8556 16.5696 31.0229 18.5204 33.8612C20.4712 36.6996 22.9644 38.609 26 39.5896C26.5486 39.414 27.0865 39.1907 27.6137 38.9196C28.1412 38.6485 28.6471 38.3451 29.1313 38.0096V40.4937C28.6499 40.7743 28.145 41.0235 27.6167 41.2412C27.0883 41.4593 26.5494 41.6403 26 41.7842ZM33.6996 41.8333C33.2993 41.8333 32.9315 41.6637 32.5963 41.3246C32.2607 40.9857 32.0929 40.6196 32.0929 40.2262V35.3462C32.0929 34.946 32.2607 34.5817 32.5963 34.2533C32.9315 33.925 33.2993 33.7608 33.6996 33.7608H33.8046V32.0942C33.8046 31.1858 34.1096 30.4146 34.7196 29.7804C35.3296 29.1462 36.0829 28.8292 36.9796 28.8292C37.8763 28.8292 38.6268 29.1462 39.2313 29.7804C39.8357 30.4146 40.1379 31.1858 40.1379 32.0942V33.7608H40.2596C40.6457 33.7608 41.0044 33.925 41.3358 34.2533C41.6675 34.5817 41.8333 34.946 41.8333 35.3462V40.2262C41.8333 40.6196 41.6675 40.9857 41.3358 41.3246C41.0044 41.6637 40.6457 41.8333 40.2596 41.8333H33.6996ZM35.2788 33.7608H38.6913V32.0942C38.6913 31.5806 38.5297 31.1536 38.2067 30.8133C37.8836 30.4733 37.4746 30.3033 36.9796 30.3033C36.4732 30.3033 36.0632 30.4733 35.7496 30.8133C35.4357 31.1536 35.2788 31.5806 35.2788 32.0942V33.7608Z" fill="white"/>
<defs>
<linearGradient id="paint0_linear_2169_439" x1="0" y1="25.5" x2="51" y2="25.5" gradientUnits="userSpaceOnUse">
<stop stop-color="#FF5300"/>
<stop offset="0.16" stop-color="#FB5103"/>
<stop offset="0.31" stop-color="#F04C0F"/>
<stop offset="0.46" stop-color="#DE4322"/>
<stop offset="0.61" stop-color="#C5363C"/>
<stop offset="0.75" stop-color="#A4265F"/>
<stop offset="0.9" stop-color="#7C1389"/>
<stop offset="1" stop-color="#5B03AD"/>
</linearGradient>
<linearGradient id="paint1_linear_2169_439" x1="0" y1="25.5" x2="51" y2="25.5" gradientUnits="userSpaceOnUse">
<stop stop-color="#004C92"/>
<stop offset="1" stop-color="#FF0009"/>
</linearGradient>
</defs>
</svg>
