<svg width="51" height="51" viewBox="0 0 51 51" fill="none" xmlns="http://www.w3.org/2000/svg">
<path d="M41 0H10C4.47715 0 0 4.47715 0 10V41C0 46.5228 4.47715 51 10 51H41C46.5228 51 51 46.5228 51 41V10C51 4.47715 46.5228 0 41 0Z" fill="url(#paint0_linear_2169_451)"/>
<path d="M41 0H10C4.47715 0 0 4.47715 0 10V41C0 46.5228 4.47715 51 10 51H41C46.5228 51 51 46.5228 51 41V10C51 4.47715 46.5228 0 41 0Z" fill="url(#paint1_linear_2169_451)"/>
<path d="M40.5003 42L34.9641 36.4637V41.047H32.8699V32.8695H41.0474V34.9637H36.4224L41.9587 40.5L40.5003 42ZM26.0003 41.8333C23.81 41.8333 21.7517 41.4175 19.8253 40.5858C17.8989 39.7541 16.2232 38.6254 14.7982 37.1995C13.3732 35.774 12.2452 34.1034 11.4141 32.1879C10.5827 30.2723 10.167 28.2255 10.167 26.0475C10.167 23.8413 10.5825 21.7744 11.4137 19.8466C12.2448 17.9188 13.3727 16.2393 14.7974 14.8079C16.2221 13.3768 17.8975 12.2454 19.8237 11.4137C21.7498 10.5823 23.8077 10.1666 25.9974 10.1666C28.1874 10.1666 30.2459 10.5823 32.1728 11.4137C34.0998 12.2448 35.7759 13.3758 37.2012 14.8066C38.6264 16.2377 39.7549 17.9169 40.5866 19.8441C41.418 21.7713 41.8337 23.8383 41.8337 26.045C41.8337 26.5811 41.8107 27.1105 41.7649 27.6333C41.7191 28.1563 41.6412 28.6838 41.5312 29.2158H39.3424C39.4782 28.69 39.5784 28.1641 39.6428 27.6383C39.7073 27.1122 39.7395 26.5811 39.7395 26.045C39.7395 25.4055 39.6953 24.7625 39.607 24.1158C39.5187 23.4694 39.3831 22.8282 39.2003 22.192H32.5174C32.6107 22.8318 32.6838 23.4712 32.7366 24.1104C32.7891 24.7498 32.8153 25.3891 32.8153 26.0283C32.8153 26.5641 32.8009 27.0969 32.772 27.6266C32.7428 28.1563 32.6992 28.6861 32.6412 29.2158H30.5195C30.587 28.6838 30.6375 28.1543 30.6712 27.627C30.7048 27.1001 30.7216 26.5732 30.7216 26.0462C30.7216 25.402 30.6981 24.758 30.6512 24.1141C30.6039 23.47 30.5291 22.8293 30.4266 22.192H21.6062C21.5006 22.8318 21.4225 23.4718 21.372 24.112C21.3214 24.752 21.2962 25.3922 21.2962 26.0325C21.2962 26.6725 21.3214 27.3075 21.372 27.9375C21.4225 28.5675 21.4967 29.1966 21.5945 29.825H29.0024V31.9187H22.027C22.4262 33.3651 22.9238 34.7686 23.5199 36.1291C24.1157 37.4897 24.9425 38.6962 26.0003 39.7487C26.5462 39.7487 27.0827 39.7194 27.6099 39.6608C28.1371 39.6019 28.6725 39.5241 29.2162 39.4275V41.5116C28.6725 41.6086 28.1371 41.6863 27.6099 41.745C27.0827 41.8039 26.5462 41.8333 26.0003 41.8333ZM12.7966 29.825H19.4832C19.3877 29.1966 19.317 28.567 19.2712 27.9362C19.2253 27.3054 19.2024 26.6744 19.2024 26.0433C19.2024 25.3986 19.223 24.755 19.2641 24.1125C19.3055 23.4697 19.3728 22.8295 19.4662 22.192H12.7991C12.6166 22.8282 12.4813 23.4693 12.3932 24.1154C12.3052 24.7618 12.2612 25.4082 12.2612 26.0545C12.2612 26.6912 12.3044 27.3233 12.3907 27.9508C12.4774 28.578 12.6127 29.2027 12.7966 29.825ZM13.5578 20.0983H19.847C20.1714 18.7422 20.5982 17.4295 21.1274 16.1604C21.6566 14.8909 22.3346 13.6922 23.1616 12.5641C21.0741 13.0541 19.1914 13.9508 17.5137 15.2541C15.8359 16.5577 14.5173 18.1725 13.5578 20.0983ZM23.1341 39.4187C22.3577 38.2843 21.7005 37.087 21.1624 35.827C20.6241 34.567 20.1975 33.2643 19.8828 31.9187H13.5578C14.4875 33.8526 15.791 35.4798 17.4682 36.8004C19.1457 38.1207 21.0344 38.9934 23.1341 39.4187ZM22.027 20.0983H29.9907C29.6246 18.6397 29.1149 17.2418 28.4616 15.9045C27.808 14.5673 26.9875 13.3382 26.0003 12.217C25.0059 13.3337 24.1838 14.5618 23.5341 15.9012C22.8841 17.2407 22.3817 18.6397 22.027 20.0983ZM32.1662 20.0983H38.4428C37.4834 18.1725 36.167 16.5519 34.4937 15.2366C32.8206 13.9216 30.9449 13.0365 28.8666 12.5812C29.6544 13.7157 30.3095 14.9176 30.832 16.187C31.3545 17.4565 31.7992 18.7602 32.1662 20.0983Z" fill="white"/>
<defs>
<linearGradient id="paint0_linear_2169_451" x1="0" y1="25.5" x2="51" y2="25.5" gradientUnits="userSpaceOnUse">
<stop stop-color="#FF5300"/>
<stop offset="0.16" stop-color="#FB5103"/>
<stop offset="0.31" stop-color="#F04C0F"/>
<stop offset="0.46" stop-color="#DE4322"/>
<stop offset="0.61" stop-color="#C5363C"/>
<stop offset="0.75" stop-color="#A4265F"/>
<stop offset="0.9" stop-color="#7C1389"/>
<stop offset="1" stop-color="#5B03AD"/>
</linearGradient>
<linearGradient id="paint1_linear_2169_451" x1="0" y1="25.5" x2="51" y2="25.5" gradientUnits="userSpaceOnUse">
<stop stop-color="#004C92"/>
<stop offset="1" stop-color="#FF0009"/>
</linearGradient>
</defs>
</svg>
