<svg width="187" height="35" viewBox="0 0 594 184" fill="none" xmlns="http://www.w3.org/2000/svg">
<g clip-path="url(#clip0_2366_329)">
<path fill-rule="evenodd" clip-rule="evenodd" d="M44.9142 30.5018H96.0261V35.7954H44.9142V30.5018ZM44.9142 47.5494H124.874V52.843H44.9142V47.5494ZM52.9357 103.994H80.5704C76.7992 107.842 73.1053 111.76 69.4887 115.755H65.7793C61.6759 111.636 57.3946 107.718 52.9434 103.994H52.9357ZM24.335 6.10352e-05H107.865V37.5882H145.453V49.8678C138.444 54.6127 131.582 59.5585 124.874 64.7129V64.597H44.9142V69.8906H118.275C113.506 73.7082 108.816 77.6262 104.218 81.6524H44.9142V86.9459H98.2826C94.0632 90.7789 89.9134 94.7047 85.8485 98.7077H46.3129C39.3347 93.3755 31.9855 88.5224 24.3272 84.1871V6.10352e-05H24.335Z" fill="url(#paint0_linear_2366_329)"/>
<path fill-rule="evenodd" clip-rule="evenodd" d="M187.137 31.4757C141.875 55.4242 101.428 87.5334 67.8349 126.188C51.8383 108.545 32.6037 94.1252 11.1899 83.7004C3.72482 99.4574 0 107.34 0 107.34C26.8233 122.015 50.3932 141.976 69.2955 166.01C102.711 116.35 142.316 71.1349 187.145 31.468" fill="url(#paint1_linear_2366_329)"/>
<path fill-rule="evenodd" clip-rule="evenodd" d="M107.865 6.10352e-05L145.453 37.5882H107.865V6.10352e-05Z" fill="url(#paint2_linear_2366_329)"/>
<path d="M432.079 102.433V82.3712H509.898V102.433H483.252V172.4H458.724V102.433H432.079Z" fill="#EC2027"/>
<path d="M516.181 102.433V82.3712H594V102.433H567.354V172.4H542.826V102.433H516.181Z" fill="#EC2027"/>
<path d="M154.541 158.753C147.455 158.753 141.319 157.362 136.141 154.588C130.964 151.806 126.968 147.841 124.148 142.687C121.327 137.532 119.921 131.389 119.921 124.256C119.921 117.123 121.327 111.397 124.148 106.219C126.968 101.041 130.925 97.0152 136.018 94.1327C141.11 91.2502 147.107 89.8129 153.993 89.8129C159.031 89.8129 163.606 90.6088 167.74 92.2008C171.867 93.7927 175.406 96.0801 178.343 99.0553C181.28 102.038 183.552 105.632 185.143 109.843C186.735 114.055 187.531 118.777 187.531 124.009V129.812H127.355V116.458H176.233L164.935 119.117C164.935 116.497 164.533 114.287 163.73 112.471C162.926 110.655 161.736 109.272 160.167 108.306C158.598 107.34 156.643 106.853 154.309 106.853C151.976 106.853 150.082 107.34 148.506 108.306C146.937 109.272 145.739 110.663 144.912 112.471C144.085 114.287 143.676 116.497 143.676 119.117V129.024C143.676 131.845 144.147 134.202 145.098 136.095C146.041 137.988 147.37 139.41 149.085 140.353C150.793 141.303 152.818 141.775 155.159 141.775C156.813 141.775 158.32 141.543 159.688 141.079C161.056 140.616 162.223 139.951 163.189 139.086C164.155 138.22 164.881 137.184 165.36 135.971L186.751 138.452C185.7 142.524 183.722 146.087 180.8 149.147C177.879 152.207 174.201 154.572 169.773 156.249C165.345 157.918 160.268 158.753 154.549 158.753H154.541Z" fill="#0E4D8C"/>
<path d="M196.712 157.486V90.7868H220.274V103.414H220.877C222.082 98.7387 223.999 95.3617 226.619 93.2674C229.238 91.1732 232.438 90.1222 236.224 90.1222C237.268 90.1222 238.311 90.184 239.339 90.2999C240.367 90.4158 241.363 90.6013 242.329 90.8409V111.204C241.201 110.879 239.764 110.647 238.01 110.508C236.255 110.369 234.733 110.3 233.45 110.3C231.031 110.3 228.875 110.841 226.982 111.93C225.089 113.02 223.62 114.527 222.569 116.459C221.518 118.391 221.001 120.686 221.001 123.344V157.478H196.712V157.486Z" fill="#0E4D8C"/>
<path d="M262.267 84.5039C258.844 84.5039 255.954 83.4066 253.597 81.2119C251.24 79.0172 250.065 76.3665 250.065 73.2676C250.065 70.1688 251.24 67.4177 253.597 65.2616C255.954 63.1055 258.844 62.0314 262.267 62.0314C265.691 62.0314 268.519 63.1133 270.876 65.2616C273.233 67.4177 274.408 70.0838 274.408 73.2676C274.408 76.4515 273.233 79.0712 270.876 81.2428C268.519 83.4143 265.652 84.5039 262.267 84.5039ZM250.119 157.486V90.7866H274.408V157.486H250.119Z" fill="#0E4D8C"/>
<path d="M329.631 90.7868V108.553H281.54V90.7868H329.631ZM292.537 157.486V88.0047C292.537 82.6107 293.48 78.1595 295.373 74.651C297.267 71.1503 300.025 68.5306 303.65 66.7996C307.274 65.0685 311.602 64.203 316.64 64.203C319.662 64.203 322.591 64.3807 325.435 64.7439C328.278 65.1072 330.342 65.4085 331.625 65.6481L328.904 83.2908C328.062 83.0898 327.042 82.9275 325.852 82.8039C324.662 82.6803 323.588 82.6262 322.622 82.6262C320.365 82.6262 318.812 83.113 317.969 84.079C317.127 85.045 316.702 86.4128 316.702 88.1902V157.493H292.537V157.486Z" fill="#0E4D8C"/>
<path d="M339.298 181.349L343.464 163.83L348.054 164.495C350.426 165.02 352.467 165.121 354.159 164.796C355.851 164.472 357.088 163.83 357.876 162.864C358.664 161.898 358.912 160.693 358.633 159.24L358.154 157.547L333.263 90.7866H358.703L367.281 120.755C368.571 125.307 369.615 129.897 370.426 134.534C371.23 139.171 372.18 144.163 373.262 149.518H368.247C369.29 144.163 370.372 139.147 371.477 134.472C372.582 129.804 373.826 125.23 375.194 120.755L384.622 90.7866H409.699L382.026 164.077C380.611 167.864 378.78 171.187 376.531 174.046C374.274 176.906 371.392 179.131 367.891 180.723C364.391 182.315 359.993 183.111 354.723 183.111C351.987 183.111 349.252 182.957 346.539 182.655C343.819 182.354 341.416 181.921 339.321 181.357L339.298 181.349Z" fill="#0E4D8C"/>
</g>
<defs>
<linearGradient id="paint0_linear_2366_329" x1="24.335" y1="57.8738" x2="145.453" y2="57.8738" gradientUnits="userSpaceOnUse">
<stop stop-color="#ED1F24"/>
<stop offset="0.03" stop-color="#DC222B"/>
<stop offset="0.13" stop-color="#AB2C43"/>
<stop offset="0.23" stop-color="#803558"/>
<stop offset="0.33" stop-color="#5C3D69"/>
<stop offset="0.44" stop-color="#3E4378"/>
<stop offset="0.55" stop-color="#274883"/>
<stop offset="0.68" stop-color="#174B8A"/>
<stop offset="0.82" stop-color="#0E4D8F"/>
<stop offset="1" stop-color="#0B4E91"/>
</linearGradient>
<linearGradient id="paint1_linear_2366_329" x1="0" y1="98.7388" x2="187.137" y2="98.7388" gradientUnits="userSpaceOnUse">
<stop stop-color="#EB1F24"/>
<stop offset="0.11" stop-color="#B72A3D"/>
<stop offset="0.22" stop-color="#893353"/>
<stop offset="0.34" stop-color="#623B66"/>
<stop offset="0.45" stop-color="#424276"/>
<stop offset="0.58" stop-color="#2A4781"/>
<stop offset="0.7" stop-color="#184B8A"/>
<stop offset="0.84" stop-color="#0E4D8F"/>
<stop offset="1" stop-color="#0B4E91"/>
</linearGradient>
<linearGradient id="paint2_linear_2366_329" x1="107.865" y1="18.7942" x2="145.453" y2="18.7942" gradientUnits="userSpaceOnUse">
<stop stop-color="#ED1F24"/>
<stop offset="0.13" stop-color="#BF2839"/>
<stop offset="0.29" stop-color="#893354"/>
<stop offset="0.46" stop-color="#5B3D69"/>
<stop offset="0.61" stop-color="#38447A"/>
<stop offset="0.76" stop-color="#1F4987"/>
<stop offset="0.89" stop-color="#104C8E"/>
<stop offset="1" stop-color="#0B4E91"/>
</linearGradient>
<clipPath id="clip0_2366_329">
<rect width="594" height="183.103" fill="white"/>
</clipPath>
</defs>
</svg>
